<svg id="evJc1hUlALk1" xmlns="http://www.w3.org/2000/svg" xmlns:xlink="http://www.w3.org/1999/xlink" viewBox="0 0 600 125" shape-rendering="geometricPrecision" text-rendering="geometricPrecision"><defs><linearGradient id="evJc1hUlALk2-stroke" x1="0" y1="0.5" x2="1" y2="0.5" spreadMethod="pad" gradientUnits="objectBoundingBox" gradientTransform="translate(0 0)"><stop id="evJc1hUlALk2-stroke-0" offset="9%" stop-color="#e9ff00"/><stop id="evJc1hUlALk2-stroke-1" offset="90%" stop-color="#f00"/></linearGradient></defs><path d="M269.505338,312.121096c-3.474774-7.764428-15.454345-3.391985-19.080504,1.610838-4.8266,6.658603-.967449,14.528291,3.933661,19.850442c6.355832,6.903422,15.229632,10.173588,23.931941,13.0783c21.844475,7.290165,46.158428,7.937102,68.485445,2.508507c8.246969-2.004677,16.318899-5.21216,23.12534-10.365186c3.355321-2.539258,6.822998-6.099186,7.419079-10.464533.892939-6.535602-5.652125-10.627745-10.806333-12.852404-12.2374-5.283122-27.032981-5.419133-40.013118-3.471225-34.075962,5.113996-68.464157,32.963041-77.605248,66.800097-1.600194,5.921781-2.282612,12.766067.082789,18.588501c4.72134,11.621213,21.07572,14.961159,32.196651,13.570304c18.383894-2.299169,33.397092-15.470903,44.930786-29.035293c4.78284-5.624923,8.954224-11.896783,12.708115-18.251431.415128-.701341,3.408542-5.140016,2.590114-5.992743-.542859-.565331-3.047819,2.49668-3.308013,2.792355-3.408542,3.862699-6.409053,8.123969-9.009811,12.566191-7.937102,13.553746-13.601054,29.822972-12.763702,45.730291.145472,2.75924.4991,5.899309,1.910061,8.335672c3.904094,6.74494,12.639518,5.633202,18.247883,1.921888c1.025401-.67887,1.719646-3.149531,2.202188-4.154826c1.926619-4.014085,3.730237-8.081391,5.427412-12.199554c2.400882-5.823616,4.27901-11.830551,6.888047-17.574927c3.875709-8.535548,8.60651-16.725748,12.868962-25.075612c2.454103-4.806494,5.057227-9.589334,8.621885-13.68266.820794-.942612,2.988684-3.509072,4.53329-3.214579c1.382577.263742-1.50676,5.091525-1.697175,5.48773-3.122329,6.46464-6.226917,12.934011-8.968417,19.574873-2.40443,5.827165-4.70833,11.708733-7.003951,17.579658-.888208,2.271967-1.802435,4.53329-2.786442,6.765046-.059135.132462-.792409,1.933715-.993468,1.803618-.35481-.230627.864554-3.071473.956805-3.326936c1.302153-3.595409,2.825471-7.119856,4.449319-10.580437c4.722522-10.06478,11.061796-20.616832,19.894202-27.593581c2.946107-2.326372,7.570465-5.905223,11.528963-3.827218c3.185012,1.673521,4.001075,5.996291,4.477703,9.199043c1.264307,8.505981-.448243,17.674274-2.817192,25.852647-.798323,2.758057-1.717281,5.516114-2.89052,8.139344-.238905.533398-.877564,2.445824-1.65578,2.506142-.59135.046125.620918-3.41209.69661-3.61788c1.451173-3.96796,3.461764-7.738408,5.54923-11.402414c5.317421-9.337419,14.735263-23.668199,27.392522-22.387335c3.795285.384378,5.423864,3.788189,5.915867,7.202645.922506,6.396043-.91541,12.715211-2.190361,18.92084-.817246,3.97269-1.095181,8.581674,4.036556,9.280649c12.067091,1.642771,19.197592-13.737064,23.592506-22.243045c1.143671-2.214015,2.287342-4.429213,3.477139-6.620756c1.865118-3.434562,3.747977-6.869124,5.854367-10.164127.704889-1.103459,1.441712-2.18563,2.183265-3.265436.338252-.492003,1.010026-2.0236,1.080988-1.429885.066231.564148-.960353,1.664059-1.248932,2.072091-1.423971,2.018869-2.882241,4.01645-4.318039,6.028224-5.28667,7.402521-10.970728,14.691504-15.266296,22.736231-1.428702,2.674085-3.814209,6.600651-2.508507,9.747816c1.571809,3.787006,8.511894,1.849743,11.230922.963901c10.1523-3.30683,17.073462-13.265167,22.969223-21.544069c1.600194-2.247131,3.147166-4.527377,4.665753-6.830094.224713-.3418.995834-1.933715,1.50676-1.943177.299223-.005914-.279117,1.634492-.316964,1.744483-.717899,2.089831-1.614386,4.118163-2.449372,6.163051-1.970379,4.8266-5.751472,11.060613-5.647394,16.424159.127732,6.625487,11.936994,3.108136,14.961159,1.387307c6.904605-3.927748,10.863103-10.413676,14.942236-16.97175c3.773997-6.06607,7.706475-11.997312,12.143967-17.602129c2.568825-3.244147,5.208612-6.444534,7.654437-9.78448.206973-.283848,2.946107-5.222805,3.162541-5.067871c1.004113.714351.883477,3.271349.903583,4.269548.081606,3.991614-.101712,7.982045-.506196,11.953552-1.258393,12.341478.409214,28.410827-7.925275,38.576137-3.506706,4.275462-10.097895,9.630729-15.77604,5.821251-2.212832-1.484289-4.120528-3.442841-5.171949-5.913502-.111174-.262559-.922506-1.973927-.672956-2.248313.026019-.028385,1.517405,2.121764,1.609655,2.244765c1.044324,1.396769,2.324006,2.697739,3.717227,3.746795c4.169019,3.135339,9.303121,3.776362,14.38755,3.313926c20.548236-1.869849,40.097089-15.856463,55.54079-28.377712c4.200952-3.404994,8.332124-6.942451,11.82109-11.092546c1.59428-1.895869,3.559928-4.294385,3.391985-6.955461-.494369-7.790447-13.798565-3.933661-17.529984-2.092197-8.808752,4.345241-15.815069,13.627073-18.866436,22.856867-1.454721,4.399645-2.221111,9.13636.263742,13.306561c2.075639,3.485418,6.250571,5.888665,9.908663,7.390694c6.770959,2.780528,14.59807,1.128296,21.033143-1.783512c12.455017-5.63675,23.056743-15.848184,30.582265-27.145338c3.410908-5.11991,5.655673-10.864285,8.744886-16.165148.255463-.438782,2.649249-4.705965,3.251243-4.573502.164395.035481-.60436,1.57654-.638658,1.646319-1.006478,1.99285-2.140688,3.9242-3.228772,5.87329-2.881058,5.162487-5.889848,10.245733-8.840685,15.368008-3.441658,5.971454-6.743757,12.061178-9.929952,18.173373-1.247749,2.394968-2.418622,4.827783-3.685294,7.212107-.098164.185684-.993468,2.131226-1.272586,1.946725-.67887-.450609.38556-3.128242.536946-3.603688c1.173239-3.691208,2.883423-7.207376,4.670484-10.634841c5.688789-10.912776,13.958229-22.3282,24.878101-28.485337c3.564659-2.010591,9.760826-4.881004,13.436658-1.629761c2.484853,2.197457,2.254227,6.027041,1.78706,8.995619-1.088084,6.922345-4.100422,13.426014-7.051259,19.71798-1.103459,2.351208-2.257775,4.681128-3.322205,7.050077-.346531.773486-.675322,1.551703-.992286,2.337016-.173857.432868-.985189,1.298605-.518023,1.298605.171492,0,1.066796-1.999946,1.17797-2.195092c1.457087-2.541623,3.155444-4.948418,4.8266-7.352848c5.699433-8.199661,12.81101-16.967019,22.439373-20.62038c2.659893-1.010026,7.935919-3.030078,10.502379-.754563c1.572991,1.394404,1.777599,4.475338,1.964465,6.401957.624466,6.439803-1.399134,12.374594-3.473591,18.357875-1.088084,3.142435-3.060828,7.9099.607908,10.146386c4.276644,2.606672,10.440879.868102,14.787302-.548773c11.947639-3.896998,23.047281-12.799183,31.011585-22.383786c3.973873-4.780475,8.275354-12.877241,3.776362-18.791926-4.266-5.609548-11.779695-.874016-15.951079,2.328737-7.069,5.426229-13.223772,13.60815-16.392227,21.945005-1.343548,3.531543-2.454103,7.449829-1.310432,11.187162c3.401446,11.113835,19.533479,10.934065,28.513722,9.029917c20.673602-4.383087,40.727469-17.958122,52.140527-35.71755c2.857404-4.446953,5.23818-9.233341,6.872672-14.264549.309867-.956805,1.65105-3.622611,1.353009-4.65156-.171492-.590167-.72263.992286-1.050238,1.510308-.661129,1.043142-1.284413,2.107572-1.911244,3.17082-1.86157,3.15781-3.758622,6.301427-5.779857,9.361073-6.567535,9.939414-13.457947,19.689595-20.78241,29.086149-1.732656,2.221111-3.423917,4.485982-5.265382,6.618391-.237723.274386-1.483106,2.021235-1.944359,1.869849-.561783-.183319,1.807166-4.442222,1.977475-4.744994c2.743865-4.866812,5.995108-9.465151,9.265274-13.986614c6.299062-8.708223,14.06822-17.461388,22.815472-23.797113c3.015886-2.184448,7.600032-5.244093,11.560896-3.714862c4.995726,1.928984,2.973309,9.316131,1.878128,12.961213-2.632691,8.760261-7.403704,16.85348-9.443862,25.793512-.826708,3.623794-1.477193,8.189017,2.254227,10.405398c6.15359,3.655727,15.891944-1.293874,20.910142-4.87036c15.411768-10.987286,25.476548-29.361718,35.722281-44.847997c3.548101-5.362363,6.945999-10.86192,9.612988-16.724565.359541-.788861,2.503777-4.465876,1.309249-5.246459-1.367202-.892939-4.365347,2.748596-5.03239,3.45112-4.500175,4.737898-8.529635,9.926404-12.123861,15.379835-7.666264,11.631858-18.341317,30.609467-10.948257,44.782948c2.307448,4.422117,6.601833,7.814101,10.671505,10.50711" transform="translate(-247.441817-307.893064)" clip-rule="evenodd" fill="none" fill-rule="evenodd" stroke="url(#evJc1hUlALk2-stroke)" stroke-width="4" stroke-linecap="round" stroke-linejoin="round" stroke-miterlimit="1.5"/></svg>
