<svg id="e8Y9aSG1FzX1" xmlns="http://www.w3.org/2000/svg" xmlns:xlink="http://www.w3.org/1999/xlink" viewBox="0 0 1200 500" shape-rendering="geometricPrecision" text-rendering="geometricPrecision"><defs><linearGradient id="e8Y9aSG1FzX2-stroke" x1="0" y1="0.5" x2="1" y2="0.5" spreadMethod="pad" gradientUnits="objectBoundingBox" gradientTransform="translate(0 0)"><stop id="e8Y9aSG1FzX2-stroke-0" offset="0%" stop-color="#fc0072"/><stop id="e8Y9aSG1FzX2-stroke-1" offset="34%" stop-color="#b900fc"/><stop id="e8Y9aSG1FzX2-stroke-2" offset="71%" stop-color="#00fcf4"/><stop id="e8Y9aSG1FzX2-stroke-3" offset="100%" stop-color="#5c00fc"/></linearGradient></defs><path d="M315.362,181.152c1.622-11.184-17.262-17.072-24.287-10.051-6.684,6.68-3.926,17.156-.068,24.445c8.595,16.242,22.871,28.964,39.16,37.207c33.537,16.973,75.603,14.385,109.432-.608c11.799-5.229,31.659-15.495,33.093-30.382c1.066-11.072-10.891-16.856-19.875-19.063-21.55-5.296-45.801.325-65.82,8.673-39.809,16.602-71.112,50.811-88.851,89.64-7.547,16.52-13.577,35.406-12.418,53.796c1.739,27.603,23.039,38.519,48.147,30.066c32.918-11.081,60.802-37.959,82.288-64.339c7.265-8.919,14.388-18.219,20.177-28.182.948-1.632,5.689-8.424,3.975-10.559-1.231-1.534-6.192,3.863-6.83,4.511-5.877,5.966-10.814,12.853-15.543,19.736-17.439,25.381-35.015,53.903-43.187,83.857-2,7.331-7.201,27.736,4.279,30.726c9.685,2.522,21.494-7.978,27.921-13.785c21.537-19.455,37.799-45.352,52.543-70.098c7.323-12.29,14.227-24.918,20.137-37.953.33-.728,5.41-12.385,4.481-12.584-1.378-.295-6.294,11.944-6.763,12.943-6.585,14.044-12.971,28.175-19.018,42.46-1.718,4.059-6.406,15.388-6.186,15.529.439.281,3.026-3.8,3.222-4.084c3.395-4.913,6.735-9.862,10.198-14.728c9.582-13.465,20.062-27.273,33.385-37.284c4.764-3.579,11.809-8.061,18.063-5.898c6.211,2.148,6.976,10.871,7.014,16.365.102,14.602-4.47,29.673-9.601,43.202-1.555,4.101-3.995,14.644-8.076,17.199-.026.016-.056.032-.086.028-.26-.03,2.526-5.635,2.692-5.935c3.753-6.782,8.263-13.081,12.931-19.256c8.815-11.663,17.979-23.823,29.77-32.676c4.557-3.422,10.991-7.537,17.035-6.572c6.235.996,5.645,9.649,5.415,14.306-.607,12.248-4.677,25.141-3.229,37.354.887,7.476,4.933,12.42,12.877,10.301c21.839-5.823,38.717-39.719,46.926-58.509c2.536-5.805,4.886-11.696,7.01-17.664.194-.545,2.228-5.349,1.403-5.817-.626-.355-3.681,5.047-3.937,5.468-3.657,6.037-6.979,12.306-10.18,18.593-5.949,11.684-12.616,24.442-14.628,37.536-.705,4.588-1.32,12.152,2.985,15.367c5.67,4.234,14.501-.313,19.519-3.323c15.013-9.006,26.735-22.258,36.921-36.308c1.294-1.785,12.075-17.603,10.934-19.311-.648-.971-4.229,4.502-4.431,4.813-1.81,2.784-3.435,5.673-4.902,8.652-4.023,8.168-16.23,39.808,3.307,38.527c29.262-1.919,54.891-43.812,66.904-66.88c4.479-8.6,8.458-17.345,12.336-26.223.722-1.652,2.597-7.324,5.345-6.483c2.41.738,2.938,6.027,3.353,7.989c1.888,8.918,2.78,18.185,2.759,27.293-.045,20.195-2.564,43.276-13.561,60.721-11.722,18.595-33.241,22.353-49.966,7.651-.608-.535-6.233-5.545-5.536-6.558.257-.375,3.418,2.007,3.666,2.179c4.03,2.781,8.072,5.525,12.354,7.91c10.734,5.979,22.8,10.213,35.176,7.772c26.709-5.269,38.216-30.145,57.885-45.576c10.621-8.332,25.143-8.741,37.194-14.09c8.243-3.659,17.587-10.287,16.51-20.578-1.597-15.259-26.779-9.072-34.793-4.454-12.453,7.175-21.885,19.441-24.641,33.633-3.844,19.799,5.354,45.292,27.718,48.294c31.765,4.264,59.317-31.077,75.021-53.719c5.299-7.64,10.3-15.517,15.071-23.497c1.66-2.778,3.257-5.594,4.832-8.422.916-1.646,2.547-4.475,2.34-4.182-14.671,20.825-25.87,44.916-39.314,66.609-3.35,5.406-6.61,10.911-10.256,16.126-.313.448-3.075,4.851-3.874,4.539-.555-.216,2.94-5.79,3.14-6.117c4.356-7.118,9.119-13.992,14.17-20.631c9.246-12.15,18.799-24.889,30.485-34.822c4.379-3.723,10.752-9.241,17.063-8.014c4.979.968,5.913,7.164,6.02,11.341.268,10.434-2.368,21.482-5.51,31.363-1.138,3.575-2.471,7.078-3.823,10.576-.489,1.263-.975,2.528-1.41,3.811-.034.101-.644,2.082-.457,2.045.796-.156,9.525-12.982,10.454-14.19c10.732-13.953,23.045-27.812,36.835-38.818c4.031-3.218,11.993-9.27,17.515-5.994c5.819,3.456,2.42,13.306,1.198,18.277-3.327,13.534-8.336,26.681-11.294,40.282-1.114,5.12-2.734,12.13,2.535,15.502c8.126,5.2,20.1-4.589,26.14-9.17c10.1-7.659,19.2-16.527,29.4-24.079c13.59-10.068,28.25-18.963,40.86-30.301c5.46-4.913,21.85-19.865,14.79-28.556-8.05-9.924-28.29.289-35.84,5.49-17.88,12.319-30.98,33.008-30.51,55.193.25,12.019,5.03,24.646,16.58,29.936c11.61,5.321,24.97-1.421,34.42-8.165c23.53-16.78,43.15-41.098,61.33-63.288c6.81-8.309,13.52-16.753,19.93-25.379.43-.578,5.79-7.292,5.08-7.963-.14-.128-3.16,4.13-3.32,4.356-3.79,5.472-7.44,11.058-11,16.68-8.77,13.833-17.15,27.912-25.71,41.876-3.87,6.311-7.76,12.61-11.7,18.877-1.46,2.321-2.97,4.602-4.43,6.92-.65,1.024-3,3.412-1.82,3.145c1.13-.256,3.39-4.194,4.09-5.058c3.69-4.486,7.54-8.834,11.51-13.067c13.26-14.142,27.66-27.446,43.46-38.704c5.47-3.895,13.85-10.58,21.08-10.148c7.4.442,2.58,11.887,1.15,15.287-5.36,12.677-13.52,24.293-17.94,37.347-1.41,4.163-3.5,12.096,2.68,13.392c10.2,2.142,24.09-7.649,31.86-12.898c26.7-18.027,48.43-43.948,67.56-69.581c4.61-6.181,19.39-23.545,19.5-31.409.06-4.673-8.7,6.558-10.58,8.857-5.76,7.021-11.15,14.337-16.47,21.69-12.15,16.788-22.95,34.933-32.02,53.575-3.48,7.145-8.55,17.362-5.45,25.482c2.98,7.823,13.44,5.858,19.73,4.43c18.74-4.257,35.99-12.48,53.88-19.205c4.78-1.795,19.87-7.62,22.67.02c4.12,11.233-9,25.77-15.36,33.325-24,28.5-57.03,46.842-92.13,58.194-103.89,33.594-216.36,5.999-318.65-19.166-67.734-16.662-152.051-39.84-217.32-2.75-68.476,38.914-79.959,135.87-126.824,194.381-2.892,3.61-5.938,7.1-9.12,10.456-11.34,11.958-46.087,40.633-61.256,18.787-12.798-18.433,10.113-53.706,20.576-68.21c37.557-52.065,93.553-95.117,149.512-125.78c16.879-9.25,35.935-18.467,55.187-21.268c7.822-1.138,18.256-1.148,23.725,5.655c11.277,14.026-5.79,38.831-14.538,49.446-14.466,17.555-35.626,31.637-58.265,35.479-9.119,1.547-18.588,1.437-27.615-.661-7.723-1.796-22.533-13.272-21.009,1.517.195,1.889.542,3.753.981,5.599.609,2.565,6.423,16.158,9.481,19.744c10.994,12.895,27.794,11.266,42.319,6.04c29.923-10.766,37.244-40.066,64.933-55.282c8.241-4.529,54.036-10.636,62.804-.665c4.05,4.604-.248,7.438-4.966,6.233-16.315-4.168-29.855-13.314-47.518-9.176-21.13,4.951-37.45,23.162-45.058,42.886-3.1,8.039-6.095,17.942-2.146,26.239c4.226,8.877,15.771,7.207,23.326,4.056c18.846-7.863,34.281-23.626,47.595-38.608c4.74-5.333,9.231-10.875,13.592-16.521c1.426-1.846,2.837-3.704,4.186-5.608.11-.155,2.29-3.417,2.14-3.456-.563-.147-7.387,10.166-8.948,12.701-6.936,11.262-14.687,23.813-17.23,36.969-1.002,5.181-.702,12.967,5.914,13.879c8.77,1.209,17.357-5.638,23.853-10.516c17.798-13.365,32.396-30.81,45.432-48.747c2.248-3.093,15.156-19.371,14.656-23.142-.078-.587-.366,1.128-.495,1.706-.244,1.102-.25,2.219-.07,3.333.028.172.06.344.094.515.773,3.816,3.001,7.564,5.823,10.22c4.2,3.952,10.512,5.819,16.029,6.947c1.893.387,6.499-.057,7.95,1.316c1.337,1.267-9.315,10.724-12.223,13.664-9.134,9.236-18.743,19.069-23.297,31.497-2.076,5.667-3.176,12.407,2.061,16.692c11.774,9.635,31.387-5.814,39.819-13.524c15.073-13.781,27.862-32.341,38.563-49.714c8.365-13.58,14.771-27.189,26.836-38.061c7.219-6.505,15.279-13.479,20.196-21.998c2.129-3.69,3.285-8.866-.568-11.88-8.861-6.932-24.132,3.326-30.979,8.693-24.642,19.315-33.077,51.975-42.505,80.383-3.308,9.966-6.655,19.94-10.316,29.783-1.235,3.324-2.521,6.633-4.077,9.822-.67,1.373-1.56,5.335-2.271,3.982-.411-.782,1.97-4.327,2.313-4.996c2.809-5.481,6.095-10.661,9.655-15.683c10.744-15.156,22.891-29.512,38.607-39.713c5.372-3.487,15.212-8.041,21.652-4.765c6.599,3.357,1.877,11.538-1.859,15.054-6.348,5.973-15.603,9.18-24.03,10.749-2.977.554-8.897-.166-11.508,1.247-.633.343,1.371.444,2.031.73c1.528.664,2.975,1.527,4.327,2.496c4.073,2.921,7.316,6.766,10.315,10.745c7.01,9.297,9.851,28.752,24.602,27.933c9.31-.516,17.719-6.768,25.017-11.973c17.269-12.321,31.679-28.226,45.939-43.81c5.25-5.745,10.3-12.084,16.28-17.098c1.68-1.408,5.07-4.266,7.35-2.365c4.83,4.032.83,19.584.1,24.544-2.9,19.565-10.52,55.233-36.13,55.758-9.89.202-20.379-6.115-26.928-13.143-1.236-1.326-6.524-6.452-5.424-8.72.505-1.042,11.251,7.224,12.09,7.776c8.022,5.284,16.772,9.926,25.792,13.262c25.01,9.255,53.45,3.917,78.15-3.648" transform="translate(-207.703186-143.487174)" clip-rule="evenodd" fill="none" fill-rule="evenodd" stroke="url(#e8Y9aSG1FzX2-stroke)" stroke-width="9.2" stroke-linecap="round" stroke-linejoin="round" stroke-miterlimit="1.5"/><path d="M1244.55,232.18c26.27,8.227,54.58,9.533,81.59,13.961" transform="translate(-221.94173-129.764755)" clip-rule="evenodd" fill="none" fill-rule="evenodd" stroke="#4b27fb" stroke-width="9.2" stroke-linecap="round" stroke-linejoin="round" stroke-miterlimit="1.5"/></svg>
